<svg height="512pt" viewBox="0 -76 512.00015 512" width="512pt" xmlns="http://www.w3.org/2000/svg"><path d="m492 0h-471.976562c-17.273438 0-26.421876 20.515625-14.878907 33.363281l86.875 96.714844v209.921875c0 11.046875 8.953125 20 20 20h379.980469c11.046875 0 20-8.953125 20-20v-320c0-11.046875-8.953125-20-20-20zm-19.996094 320h-339.988281v-197.585938c0-4.933593-1.824219-9.695312-5.121094-13.363281l-62.023437-69.050781h407.132812zm-288.992187-193.332031c0-11.046875 8.953125-20 20-20h198c11.046875 0 20 8.953125 20 20s-8.953125 20-20 20h-198c-11.046875 0-20-8.953125-20-20zm0 106.664062c0-11.046875 8.953125-20 20-20h198c11.046875 0 20 8.953125 20 20s-8.953125 20-20 20h-198c-11.046875 0-20-8.953125-20-20zm0 0"/></svg>